<?xml version="1.0" encoding="utf-8"?>
<svg version="1.1" xmlns:xlink="http://www.w3.org/1999/xlink" width="15px" height="15px" xmlns="http://www.w3.org/2000/svg">
  <g transform="matrix(1 0 0 1 -932 -91 )">
    <path d="M 14.3960336538462 4.97514204545455  C 14.7986778846154 5.96946022727273  15 7.00284090909091  15 8.07528409090909  C 15 9.25426136363636  14.8197115384615 10.3693181818182  14.4591346153846 11.4204545454545  L 14.2788461538462 11.9424715909091  L 12.6111778846154 12.2940340909091  C 12.4789663461538 12.8835227272727  12.20703125 13.3682528409091  11.7953725961538 13.7482244318182  C 11.3837139423077 14.1281960227273  10.9134615384615 14.3181818181818  10.3846153846154 14.3181818181818  L 10.3846153846154 14.6590909090909  C 10.3846153846154 14.7585227272727  10.3575721153846 14.8401988636364  10.3034855769231 14.9041193181818  C 10.2493990384615 14.9680397727273  10.1802884615385 15  10.0961538461538 15  L 9.51923076923077 15  C 9.43509615384616 15  9.36598557692308 14.9680397727273  9.31189903846154 14.9041193181818  C 9.2578125 14.8401988636364  9.23076923076923 14.7585227272727  9.23076923076923 14.6590909090909  L 9.23076923076923 8.52272727272727  C 9.23076923076923 8.42329545454545  9.2578125 8.34161931818182  9.31189903846154 8.27769886363636  C 9.36598557692308 8.21377840909091  9.43509615384616 8.18181818181818  9.51923076923077 8.18181818181818  L 10.0961538461538 8.18181818181818  C 10.1802884615385 8.18181818181818  10.2493990384615 8.21377840909091  10.3034855769231 8.27769886363636  C 10.3575721153846 8.34161931818182  10.3846153846154 8.42329545454545  10.3846153846154 8.52272727272727  L 10.3846153846154 8.86363636363636  C 10.8112980769231 8.86363636363636  11.2019230769231 8.98970170454545  11.5564903846154 9.24183238636364  C 11.9110576923077 9.49396306818182  12.1905048076923 9.83309659090909  12.3948317307692 10.2592329545455  L 13.0078125 10.1313920454545  C 13.1820913461538 9.45667613636363  13.2692307692308 8.77130681818182  13.2692307692308 8.07528409090909  C 13.2692307692308 7.02414772727273  13.0048076923077 6.03338068181818  12.4759615384615 5.10298295454546  C 11.9471153846154 4.17258522727273  11.2364783653846 3.43039772727273  10.3440504807692 2.87642045454545  C 9.45162259615385 2.32244318181818  8.50360576923077 2.04545454545455  7.5 2.04545454545455  C 6.49639423076923 2.04545454545455  5.54837740384615 2.32244318181818  4.65594951923077 2.87642045454545  C 3.76352163461538 3.43039772727273  3.05288461538462 4.17258522727273  2.52403846153846 5.10298295454546  C 1.99519230769231 6.03338068181818  1.73076923076923 7.02414772727273  1.73076923076923 8.07528409090909  C 1.73076923076923 8.77130681818182  1.81790865384615 9.45667613636363  1.9921875 10.1313920454545  L 2.60516826923077 10.2592329545455  C 2.80949519230769 9.83309659090909  3.08894230769231 9.49396306818182  3.44350961538462 9.24183238636364  C 3.79807692307692 8.98970170454545  4.18870192307692 8.86363636363636  4.61538461538462 8.86363636363636  L 4.61538461538462 8.52272727272727  C 4.61538461538462 8.42329545454545  4.64242788461538 8.34161931818182  4.69651442307692 8.27769886363636  C 4.75060096153846 8.21377840909091  4.81971153846154 8.18181818181818  4.90384615384615 8.18181818181818  L 5.48076923076923 8.18181818181818  C 5.56490384615385 8.18181818181818  5.63401442307692 8.21377840909091  5.68810096153846 8.27769886363636  C 5.7421875 8.34161931818182  5.76923076923077 8.42329545454545  5.76923076923077 8.52272727272727  L 5.76923076923077 14.6590909090909  C 5.76923076923077 14.7585227272727  5.7421875 14.8401988636364  5.68810096153846 14.9041193181818  C 5.63401442307692 14.9680397727273  5.56490384615385 15  5.48076923076923 15  L 4.90384615384615 15  C 4.81971153846154 15  4.75060096153846 14.9680397727273  4.69651442307692 14.9041193181818  C 4.64242788461538 14.8401988636364  4.61538461538462 14.7585227272727  4.61538461538462 14.6590909090909  L 4.61538461538462 14.3181818181818  C 4.08653846153846 14.3181818181818  3.61628605769231 14.1281960227273  3.20462740384615 13.7482244318182  C 2.79296875 13.3682528409091  2.52103365384615 12.8835227272727  2.38882211538462 12.2940340909091  L 0.721153846153846 11.9424715909091  L 0.540865384615385 11.4204545454545  C 0.180288461538462 10.3693181818182  0 9.25426136363636  0 8.07528409090909  C 0 7.00284090909091  0.201322115384615 5.96946022727273  0.603966346153846 4.97514204545455  C 1.00661057692308 3.98082386363636  1.54447115384615 3.11967329545454  2.21754807692308 2.39169034090909  C 2.890625 1.66370738636364  3.68990384615385 1.08309659090909  4.61538461538462 0.649857954545455  C 5.54086538461539 0.216619318181818  6.50240384615385 0  7.5 0  C 8.49759615384616 0  9.45913461538462 0.216619318181818  10.3846153846154 0.649857954545455  C 11.3100961538462 1.08309659090909  12.109375 1.66370738636364  12.7824519230769 2.39169034090909  C 13.4555288461538 3.11967329545454  13.9933894230769 3.98082386363636  14.3960336538462 4.97514204545455  Z " fill-rule="nonzero" fill="#8c8c8c" stroke="none" transform="matrix(1 0 0 1 932 91 )" />
  </g>
</svg>