<?xml version="1.0" encoding="utf-8"?>
<svg version="1.1" xmlns:xlink="http://www.w3.org/1999/xlink" width="30px" height="32px" xmlns="http://www.w3.org/2000/svg">
  <g transform="matrix(1 0 0 1 -1269 -13 )">
    <path d="M 28.469387755102 6.39583333333333  C 28.9255702280912 6.60416666666667  29.2797118847539 6.90277777777778  29.53181272509 7.29166666666667  C 30.0120048019208 8.08333333333333  30.1200480192077 8.97916666666667  29.8559423769508 9.97916666666667  L 24.9039615846339 28.8541666666667  C 24.6758703481393 29.7430555555556  24.2166866746699 30.4895833333333  23.5264105642257 31.09375  C 22.8361344537815 31.6979166666667  22.1008403361345 32  21.3205282112845 32  L 4.69987995198079 32  C 3.77551020408163 32  2.88415366146459 31.6284722222222  2.02581032412965 30.8854166666667  C 1.16746698679472 30.1423611111111  0.570228091236495 29.2291666666667  0.234093637454982 28.1458333333333  C -0.0540216086434574 27.2152777777778  -0.0660264105642257 26.3333333333333  0.198079231692677 25.5  C 0.198079231692677 25.4444444444444  0.21608643457383 25.2569444444444  0.252100840336134 24.9375  C 0.288115246098439 24.6180555555556  0.312124849939976 24.3611111111111  0.324129651860744 24.1666666666667  C 0.336134453781513 24.0555555555556  0.31812725090036 23.90625  0.270108043217287 23.71875  C 0.222088835534214 23.53125  0.204081632653061 23.3958333333333  0.21608643457383 23.3125  C 0.240096038415366 23.1597222222222  0.288115246098439 23.0138888888889  0.360144057623049 22.875  C 0.432172869147659 22.7361111111111  0.531212484993998 22.5729166666667  0.657262905162065 22.3854166666667  C 0.783313325330132 22.1979166666667  0.882352941176471 22.0347222222222  0.95438175270108 21.8958333333333  C 1.23049219687875 21.3680555555556  1.50060024009604 20.7326388888889  1.76470588235294 19.9895833333333  C 2.02881152460984 19.2465277777778  2.20888355342137 18.6111111111111  2.30492196878751 18.0833333333333  C 2.34093637454982 17.9444444444444  2.34393757503001 17.7361111111111  2.31392557022809 17.4583333333333  C 2.28391356542617 17.1805555555556  2.28091236494598 16.9861111111111  2.30492196878751 16.875  C 2.34093637454982 16.7222222222222  2.44297719087635 16.5277777777778  2.61104441776711 16.2916666666667  C 2.77911164465786 16.0555555555556  2.88115246098439 15.8958333333333  2.9171668667467 15.8125  C 3.16926770708283 15.3125  3.42136854741897 14.6736111111111  3.6734693877551 13.8958333333333  C 3.92557022809124 13.1180555555556  4.07563025210084 12.4930555555556  4.12364945978391 12.0208333333333  C 4.13565426170468 11.8958333333333  4.12064825930372 11.6736111111111  4.07863145258103 11.3541666666667  C 4.03661464585834 11.0347222222222  4.03961584633854 10.8402777777778  4.08763505402161 10.7708333333333  C 4.13565426170468 10.5902777777778  4.26770708283313 10.3784722222222  4.48379351740696 10.1354166666667  C 4.69987995198079 9.89236111111111  4.83193277310924 9.73611111111111  4.87995198079232 9.66666666666667  C 5.10804321728692 9.30555555555555  5.36314525810324 8.71875  5.6452581032413 7.90625  C 5.92737094837935 7.09375  6.09243697478992 6.42361111111111  6.14045618247299 5.89583333333333  C 6.15246098439376 5.78472222222222  6.13445378151261 5.60763888888889  6.08643457382953 5.36458333333333  C 6.03841536614646 5.12152777777778  6.02641056422569 4.9375  6.05042016806723 4.8125  C 6.07442977190876 4.70138888888889  6.12845138055222 4.57638888888889  6.2124849939976 4.4375  C 6.29651860744298 4.29861111111111  6.40456182472989 4.13888888888889  6.53661464585834 3.95833333333333  C 6.6686674669868 3.77777777777778  6.77070828331333 3.63194444444444  6.84273709483794 3.52083333333333  C 6.93877551020408 3.35416666666667  7.03781512605042 3.14236111111111  7.13985594237695 2.88541666666667  C 7.24189675870348 2.62847222222222  7.33193277310924 2.38541666666667  7.40996398559424 2.15625  C 7.48799519807923 1.92708333333333  7.58403361344538 1.67708333333333  7.69807923169268 1.40625  C 7.81212484993998 1.13541666666667  7.92917166866747 0.913194444444443  8.04921968787515 0.739583333333332  C 8.16926770708283 0.565972222222218  8.32833133253301 0.402777777777775  8.52641056422569 0.25  C 8.72448979591837 0.0972222222222179  8.9405762304922 0.0173611111111107  9.17466986794718 0.0104166666666679  C 9.40876350540216 0.00347222222221788  9.69387755102041 0.0416666666666679  10.0300120048019 0.125  L 10.0120048019208 0.1875  C 10.46818727491 0.0625  10.7743097238896 0  10.9303721488595 0  L 24.6338535414166 0  C 25.5222088835534 0  26.2064825930372 0.388888888888886  26.6866746698679 1.16666666666667  C 27.1668667466987 1.94444444444444  27.2749099639856 2.84722222222222  27.0108043217287 3.875  L 22.0768307322929 22.75  C 21.6446578631453 24.4027777777778  21.2154861944778 25.46875  20.7893157262905 25.9479166666667  C 20.3631452581032 26.4270833333333  19.5918367346939 26.6666666666667  18.4753901560624 26.6666666666667  L 2.82713085234094 26.6666666666667  C 2.50300120048019 26.6666666666667  2.27490996398559 26.7708333333333  2.14285714285714 26.9791666666667  C 2.01080432172869 27.2013888888889  2.00480192076831 27.5  2.12484993997599 27.875  C 2.41296518607443 28.8472222222222  3.27731092436975 29.3333333333333  4.71788715486194 29  L 21.3385354141657 29  C 21.6866746698679 29.3333333333333  22.0228091236495 29.2256944444444  22.3469387755102 29.0104166666667  C 22.6710684273709 28.7951388888889  22.8811524609844 28.5069444444444  22.9771908763505 28.1458333333333  L 28.3793517406963 7.58333333333333  C 28.4633853541417 7.27777777777778  28.4933973589436 6.88194444444444  28.469387755102 6.39583333333333  Z M 10.750300120048 6  L 10.3721488595438 7.33333333333333  C 10.3241296518607 7.51388888888889  10.3361344537815 7.67013888888889  10.4081632653061 7.80208333333333  C 10.4801920768307 7.93402777777778  10.6002400960384 8  10.7683073229292 8  L 21.7166866746699 8  C 21.8727490996399 8  22.0258103241297 7.93402777777778  22.1758703481393 7.80208333333333  C 22.3259303721489 7.67013888888889  22.4249699879952 7.51388888888889  22.4729891956783 7.33333333333333  L 22.8511404561825 6  C 22.8991596638655 5.81944444444444  22.8871548619448 5.66319444444444  22.8151260504202 5.53125  C 22.7430972388956 5.39930555555555  22.6230492196879 5.33333333333333  22.4549819927971 5.33333333333333  L 11.5066026410564 5.33333333333333  C 11.3505402160864 5.33333333333333  11.1974789915966 5.39930555555555  11.047418967587 5.53125  C 10.8973589435774 5.66319444444444  10.7983193277311 5.81944444444444  10.750300120048 6  Z M 9.25570228091236 11.3333333333333  L 8.87755102040816 12.6666666666667  C 8.82953181272509 12.8472222222222  8.84153661464586 13.0034722222222  8.91356542617047 13.1354166666667  C 8.98559423769508 13.2673611111111  9.10564225690276 13.3333333333333  9.27370948379352 13.3333333333333  L 20.2220888355342 13.3333333333333  C 20.3781512605042 13.3333333333333  20.531212484994 13.2673611111111  20.6812725090036 13.1354166666667  C 20.8313325330132 13.0034722222222  20.9303721488595 12.8472222222222  20.9783913565426 12.6666666666667  L 21.3565426170468 11.3333333333333  C 21.4045618247299 11.1527777777778  21.3925570228091 10.9965277777778  21.3205282112845 10.8645833333333  C 21.2484993997599 10.7326388888889  21.1284513805522 10.6666666666667  20.9603841536615 11  L 10.0120048019208 11  C 9.85594237695078 10.6666666666667  9.70288115246099 10.7326388888889  9.55282112845138 10.8645833333333  C 9.40276110444178 10.9965277777778  9.30372148859544 11.1527777777778  9.25570228091236 11.3333333333333  Z " fill-rule="nonzero" fill="#ffffff" stroke="none" transform="matrix(1 0 0 1 1269 13 )" />
  </g>
</svg>